<svg xmlns="http://www.w3.org/2000/svg" width="1371" height="765" viewBox="0 0 1371 765">
<g>
<path d="M 720.50 379.68 C715.32,380.21 603.82,381.03 602.50,380.54 C601.95,380.34 600.29,379.91 598.82,379.59 C597.34,379.26 595.88,378.18 595.56,377.19 C595.24,376.18 596.76,371.24 599.03,365.94 C606.89,347.55 610.55,333.65 611.85,317.21 L 612.50 308.91 L 620.58 305.61 C629.19,302.09 637.62,296.78 645.11,290.16 C649.16,286.57 649.78,285.47 650.32,280.94 C651.07,274.62 654.43,268.71 660.37,263.23 C664.88,259.07 668.95,257.23 670.94,258.46 C672.68,259.54 672.14,263.51 669.98,265.58 C660.97,274.17 659.07,277.02 659.07,282.00 C659.07,290.28 666.38,297.04 691.00,311.50 C701.89,317.90 716.00,327.74 716.00,328.95 C716.00,329.25 717.13,330.81 718.50,332.41 C719.88,334.00 721.00,336.07 721.00,336.99 C721.00,337.91 721.30,338.97 721.67,339.34 C722.85,340.52 721.90,352.30 720.38,355.23 C718.26,359.34 711.89,365.03 705.28,368.74 L 699.50 371.98 L 708.50 371.97 C713.45,371.97 722.00,371.32 727.50,370.53 C751.33,367.13 765.48,358.79 766.76,347.41 C767.60,339.94 766.34,336.44 760.82,330.92 C756.53,326.63 752.05,324.03 732.39,314.46 C702.35,299.83 697.00,295.25 697.00,284.18 C697.00,277.09 700.91,272.33 711.11,267.03 C721.86,261.44 739.82,258.16 761.96,257.74 L 774.42 257.50 L 775.44 260.35 C777.07,264.92 774.55,266.00 762.19,266.00 C736.25,266.00 710.65,272.98 706.39,281.21 C704.80,284.28 704.83,284.61 706.93,288.58 C709.74,293.87 712.72,295.76 733.50,305.46 C742.85,309.83 750.72,313.67 751.00,314.01 C751.28,314.34 752.87,315.17 754.55,315.85 C756.23,316.52 758.71,318.08 760.05,319.30 C761.40,320.52 763.73,322.30 765.22,323.26 C766.72,324.22 769.62,327.60 771.67,330.76 C775.17,336.14 775.40,337.00 775.45,344.50 C775.49,351.48 775.15,353.10 772.75,357.18 C767.86,365.50 759.04,371.26 744.94,375.34 C737.21,377.58 732.16,378.48 720.50,379.68 ZM 617.00 370.03 L 614.50 372.13 L 638.50 371.64 C670.01,370.99 686.93,368.08 701.89,360.72 C717.08,353.26 718.14,340.93 704.50,330.24 C698.81,325.77 680.98,315.00 679.29,315.00 C677.93,315.00 672.90,323.01 670.09,329.65 C667.97,334.68 665.01,345.27 664.98,347.96 C664.96,350.55 663.48,352.05 660.42,352.57 C648.03,354.68 623.53,364.54 617.00,370.03 ZM 624.60 352.25 C621.94,355.41 620.08,358.00 620.47,358.00 C620.86,358.00 624.17,356.60 627.84,354.89 C636.73,350.74 645.37,347.53 651.65,346.06 L 656.79 344.85 L 658.46 338.23 C660.39,330.54 665.94,318.08 669.53,313.38 L 672.02 310.11 L 667.76 307.18 C665.42,305.56 661.32,301.92 658.66,299.07 L 653.82 293.90 L 650.45 296.47 C648.59,297.89 645.59,300.40 643.79,302.06 C641.98,303.71 635.89,307.36 630.25,310.17 L 620.00 315.26 L 620.00 319.00 C620.00,324.38 617.41,338.47 614.96,346.39 C613.81,350.13 613.02,353.35 613.21,353.55 C613.41,353.74 617.71,348.97 622.78,342.94 C629.83,334.55 632.00,331.28 632.00,329.03 C632.00,327.22 632.97,325.12 634.53,323.56 C636.91,321.18 638.37,320.93 644.18,321.89 C644.55,321.95 645.57,323.43 646.44,325.18 C649.00,330.30 646.32,335.47 640.55,336.56 C638.42,336.96 636.07,338.69 633.41,341.83 C631.23,344.40 627.27,349.09 624.60,352.25 Z" fill="rgb(28,78,100)"/>
<path d="M 816.47 504.68 C809.99,507.75 807.70,508.31 800.22,508.63 C782.24,509.39 766.53,499.79 758.70,483.26 C755.63,476.78 755.50,475.99 755.50,464.00 C755.50,451.92 755.61,451.26 758.84,444.38 C769.13,422.43 795.16,413.17 817.68,423.46 C823.30,426.02 832.00,433.42 832.00,435.63 C832.00,436.38 832.44,437.00 832.98,437.00 C834.27,437.00 839.24,446.81 838.53,447.95 C838.23,448.43 838.43,448.98 838.96,449.16 C839.50,449.35 840.41,452.80 840.98,456.83 C842.10,464.73 841.28,472.71 838.51,480.89 C836.45,486.97 830.01,496.17 826.67,497.80 C825.20,498.52 824.00,499.56 824.00,500.10 C824.00,500.65 820.61,502.71 816.47,504.68 ZM 791.83 506.03 C792.20,507.09 801.00,506.93 801.00,505.86 C801.00,505.08 803.94,504.42 811.70,503.47 C814.56,503.11 817.87,501.98 819.08,500.93 C820.28,499.89 821.73,499.33 822.30,499.68 C822.93,500.08 823.10,499.70 822.72,498.71 C822.30,497.61 822.54,497.27 823.47,497.63 C824.25,497.93 825.38,497.15 826.09,495.83 C827.26,493.63 827.22,493.58 825.41,494.97 C824.23,495.88 824.43,495.40 825.92,493.72 C827.26,492.22 828.75,491.00 829.25,491.00 C830.23,491.00 833.09,488.39 833.04,487.54 C832.82,484.36 833.36,482.72 835.43,480.27 C837.42,477.90 837.89,476.15 838.06,470.44 C838.51,455.13 837.90,449.37 835.55,446.84 C834.34,445.53 833.55,443.84 833.80,443.09 C834.11,442.18 833.83,441.99 832.96,442.52 C832.01,443.11 831.84,442.85 832.35,441.52 C833.19,439.33 830.51,434.87 828.75,435.53 C828.06,435.79 825.84,434.42 823.82,432.50 C821.79,430.57 819.65,429.00 819.07,429.00 C818.48,429.00 818.00,428.57 818.00,428.04 C818.00,427.52 814.85,426.15 811.00,425.00 C807.15,423.85 804.00,422.53 804.00,422.07 C804.00,421.60 800.96,421.21 797.25,421.20 C791.53,421.19 789.77,421.63 785.72,424.10 C783.09,425.71 780.40,427.13 779.76,427.26 C777.91,427.63 776.16,429.41 776.72,430.34 C777.00,430.80 775.71,431.04 773.86,430.87 C771.68,430.67 770.58,430.98 770.74,431.75 C770.88,432.47 770.33,432.68 769.31,432.29 C768.07,431.81 767.81,432.06 768.28,433.29 C768.63,434.20 768.41,435.24 767.80,435.62 C767.13,436.04 766.97,435.85 767.40,435.15 C768.49,433.40 767.43,433.77 765.87,435.69 C764.94,436.84 764.90,437.14 765.75,436.63 C767.54,435.55 767.29,436.78 765.08,439.89 C764.03,441.37 762.20,445.71 761.03,449.54 C759.86,453.37 758.19,457.94 757.33,459.69 C755.57,463.23 755.72,464.28 759.45,474.82 C760.87,478.84 761.77,482.57 761.44,483.10 C761.11,483.63 762.26,485.67 763.99,487.64 C765.72,489.61 767.54,492.29 768.03,493.59 C768.63,495.16 769.46,495.76 770.48,495.37 C771.61,494.94 771.85,495.22 771.38,496.45 C770.93,497.62 771.38,498.29 772.87,498.68 C774.04,498.98 775.00,499.55 775.00,499.93 C775.00,501.49 782.78,504.71 787.00,504.90 C789.47,505.01 791.65,505.52 791.83,506.03 ZM 748.56 506.58 C747.01,507.71 741.89,508.00 723.44,508.00 C701.51,508.00 700.13,507.89 697.63,505.93 L 695.00 503.85 L 695.00 423.11 L 697.22 421.56 C700.42,419.32 703.73,419.64 706.55,422.45 L 709.00 424.91 L 709.00 495.00 L 727.59 495.00 C743.80,495.00 746.47,495.22 748.38,496.75 C751.21,499.01 751.31,504.56 748.56,506.58 ZM 420.00 506.00 C417.43,508.57 412.97,508.56 410.19,505.96 C408.01,503.93 408.00,503.78 408.00,463.96 C408.00,425.33 408.07,423.93 410.00,422.00 C411.11,420.89 413.33,420.00 415.00,420.00 C416.67,420.00 418.89,420.89 420.00,422.00 C421.93,423.93 422.00,425.33 422.00,464.00 C422.00,502.67 421.93,504.07 420.00,506.00 ZM 701.61 504.82 C700.63,506.42 740.55,506.39 745.21,504.80 C750.10,503.13 751.08,501.22 748.43,498.57 C746.84,496.99 744.48,496.36 745.35,497.75 C745.94,498.70 714.51,498.15 710.50,497.13 L 707.50 496.37 L 707.00 462.89 C706.55,433.04 706.31,429.11 704.73,426.70 C702.74,423.68 699.27,423.12 698.29,425.68 C697.72,427.18 697.57,427.15 696.90,425.43 C696.48,424.37 696.11,441.19 696.07,462.81 C696.02,492.58 696.28,501.94 697.17,501.39 C697.95,500.91 698.13,501.21 697.72,502.29 C697.27,503.47 697.53,503.73 698.71,503.28 C699.78,502.87 700.09,503.05 699.61,503.82 C699.13,504.60 699.46,504.76 700.61,504.32 C701.77,503.87 702.10,504.04 701.61,504.82 ZM 513.88 507.10 C513.12,507.58 511.20,507.98 509.62,507.98 C506.45,508.00 501.80,503.74 497.15,496.56 C495.70,494.33 494.25,492.27 493.91,492.00 C493.58,491.73 489.34,486.10 484.48,479.50 C479.62,472.90 472.66,463.45 469.01,458.50 L 468.92 458.38 C462.38,449.52 461.06,447.73 461.51,446.94 C461.62,446.73 461.85,446.59 462.14,446.41 C462.92,445.93 463.04,446.13 462.49,447.02 C461.89,447.99 462.13,448.16 463.39,447.68 C464.41,447.29 464.86,447.42 464.49,448.01 C464.16,448.56 464.39,449.00 465.00,449.00 C465.61,449.00 465.82,449.48 465.46,450.07 C465.06,450.71 465.54,451.01 466.65,450.82 C467.88,450.61 468.50,451.10 468.51,452.29 C468.51,453.28 469.13,454.46 469.89,454.93 C470.64,455.40 470.97,456.25 470.61,456.82 C470.26,457.39 470.49,458.19 471.14,458.59 C471.94,459.08 472.04,458.87 471.46,457.90 C470.74,456.71 470.87,456.70 472.31,457.87 C474.14,459.36 474.63,460.51 473.00,459.50 C471.60,458.63 471.81,460.17 473.38,462.23 C474.11,463.19 475.06,463.64 475.51,463.23 C475.96,462.83 476.00,463.06 475.60,463.75 C475.16,464.51 476.29,466.49 478.43,468.75 C480.38,470.81 481.99,473.11 481.99,473.86 C482.00,474.73 482.62,474.98 483.72,474.55 C484.67,474.19 485.16,474.17 484.83,474.50 C484.49,474.84 485.51,476.53 487.09,478.26 C489.18,480.55 489.63,481.62 488.73,482.19 C488.05,482.62 487.95,482.98 488.50,483.00 C489.05,483.01 491.05,485.49 492.94,488.51 C494.83,491.52 497.17,494.24 498.14,494.54 C499.11,494.85 499.69,495.64 499.44,496.30 C499.19,496.96 500.08,498.69 501.43,500.14 C502.78,501.60 503.63,503.03 503.33,503.34 C503.02,503.64 503.84,503.91 505.14,503.93 C506.44,503.95 508.40,503.99 509.50,504.03 C510.60,504.06 512.51,503.84 513.75,503.53 L 516.00 502.96 L 516.00 465.54 C516.00,440.08 515.66,427.91 514.93,427.46 C514.34,427.09 514.06,426.28 514.30,425.65 C514.96,423.92 509.37,423.85 507.95,425.56 C507.05,426.64 506.73,434.02 506.75,453.08 C506.77,467.41 506.58,479.89 506.34,480.82 C506.10,481.74 504.78,483.03 503.42,483.67 C501.24,484.70 500.75,484.55 499.38,482.46 C498.53,481.16 498.07,479.70 498.37,479.22 C498.66,478.74 497.08,476.13 494.85,473.42 C490.28,467.87 489.31,466.87 490.49,468.90 C491.06,469.88 490.93,470.08 490.09,469.55 C489.41,469.14 489.09,468.22 489.36,467.51 C489.63,466.80 489.09,465.38 488.15,464.36 C487.21,463.34 485.37,460.92 484.06,459.00 C481.84,455.75 480.72,454.48 474.05,447.59 C472.71,446.20 471.91,444.76 472.28,444.39 C472.65,444.02 471.61,442.19 469.98,440.32 C468.34,438.46 467.00,436.47 467.00,435.91 C467.00,435.34 466.55,435.16 466.00,435.50 C465.45,435.84 465.00,435.39 465.00,434.50 C465.00,433.61 464.55,433.16 464.00,433.50 C463.45,433.84 462.99,433.30 462.97,432.31 C462.92,429.65 460.36,426.66 458.90,427.56 C458.03,428.10 457.86,427.82 458.32,426.61 C458.68,425.67 458.57,425.15 458.06,425.46 C457.56,425.77 455.96,425.48 454.50,424.82 C452.48,423.90 451.41,423.89 450.00,424.77 C448.58,425.66 448.03,425.64 447.65,424.71 C447.38,424.05 447.06,440.60 446.94,461.50 C446.72,499.11 446.75,503.64 446.24,503.70 C446.17,503.71 446.10,503.63 446.01,503.55 C445.95,503.49 445.88,503.42 445.80,503.38 C445.36,503.11 445.01,485.70 445.01,464.69 C445.03,436.00 445.34,425.88 446.29,424.00 C447.35,421.89 448.36,421.45 452.70,421.20 L 457.85 420.90 L 465.43 430.90 C469.59,436.40 473.00,441.38 473.00,441.95 C473.00,442.53 473.37,443.00 473.83,443.00 C474.79,443.00 480.75,451.05 480.79,452.41 C480.81,452.91 481.54,453.72 482.41,454.21 C483.28,454.70 484.00,455.50 484.00,455.99 C484.00,456.48 485.35,458.35 487.00,460.16 C488.65,461.97 490.00,463.77 490.00,464.16 C490.00,464.55 491.35,466.35 493.00,468.16 C494.65,469.97 496.00,472.02 496.00,472.72 C496.00,473.43 496.41,474.00 496.92,474.00 C497.42,474.00 498.81,475.58 500.00,477.50 C501.19,479.42 502.58,481.00 503.08,481.00 C503.62,481.00 504.00,469.15 504.00,452.50 C504.00,425.33 504.09,423.91 506.00,422.00 C508.70,419.30 512.57,419.48 515.55,422.45 L 518.00 424.91 L 517.98 463.70 C517.98,485.04 517.58,503.12 517.10,503.88 C516.59,504.68 515.69,504.93 514.96,504.47 C514.09,503.94 513.94,504.09 514.47,504.96 C514.93,505.69 514.68,506.59 513.88,507.10 ZM 414.50 504.28 C415.60,504.55 416.64,504.82 416.82,504.88 C417.00,504.95 417.79,504.36 418.57,503.57 C419.76,502.38 420.00,495.85 420.00,464.93 C420.00,430.67 419.86,427.62 418.25,426.39 C415.84,424.56 412.06,424.67 411.33,426.58 C410.84,427.86 410.56,427.91 409.88,426.83 C409.41,426.09 409.02,442.08 409.02,462.79 C409.00,496.95 409.15,500.24 410.75,501.93 C411.71,502.95 413.40,504.01 414.50,504.28 ZM 886.50 506.00 C883.96,508.81 877.88,508.68 874.60,505.75 C872.60,503.96 870.86,499.19 866.10,482.50 C862.81,470.95 857.83,453.62 855.03,444.00 C852.23,434.38 850.18,425.54 850.46,424.38 C851.09,421.76 856.09,419.56 859.47,420.40 C860.85,420.75 862.63,422.04 863.44,423.27 C864.24,424.49 868.35,438.10 872.56,453.50 C876.78,468.90 880.55,482.10 880.94,482.82 C881.36,483.59 885.53,472.93 890.91,457.32 C895.99,442.57 900.86,429.71 901.73,428.75 C904.17,426.04 911.54,426.36 913.43,429.26 C915.52,432.45 924.12,457.00 923.50,458.00 C923.22,458.46 923.39,458.98 923.88,459.16 C925.13,459.63 933.29,483.05 932.48,483.85 C931.35,484.98 926.81,478.83 927.33,476.85 C927.62,475.73 927.40,475.25 926.78,475.64 C926.20,476.00 925.94,475.67 926.20,474.90 C926.45,474.14 926.06,472.92 925.33,472.19 C924.60,471.46 924.00,469.31 924.00,467.41 C924.00,465.51 922.84,460.71 921.41,456.73 C919.99,452.75 918.44,448.22 917.96,446.66 C916.52,441.98 914.56,438.00 913.70,438.00 C913.25,438.00 913.15,437.57 913.47,437.04 C914.40,435.55 911.32,429.12 909.83,429.43 C909.10,429.58 907.83,429.97 907.00,430.30 C906.17,430.63 904.60,431.04 903.51,431.20 C901.25,431.54 897.63,438.48 898.33,441.14 C898.57,442.06 897.91,444.09 896.87,445.66 C895.83,447.22 893.88,451.88 892.54,456.00 C891.20,460.12 889.18,466.08 888.05,469.23 C886.92,472.37 886.00,476.34 886.00,478.03 C886.00,480.11 885.62,480.88 884.85,480.40 C884.15,479.97 883.96,480.13 884.38,480.80 C885.07,481.92 882.23,486.00 880.76,486.00 C879.16,486.00 871.57,465.50 872.58,463.87 C872.88,463.39 872.57,463.00 871.89,463.00 C871.22,463.00 870.95,462.72 871.30,462.37 C871.65,462.02 871.54,461.01 871.07,460.12 C870.59,459.23 869.94,456.07 869.62,453.10 C869.30,450.14 868.28,446.55 867.35,445.13 C866.42,443.70 865.39,439.84 865.08,436.53 C864.52,430.71 864.38,430.46 860.45,428.51 C854.46,425.54 854.00,425.60 854.00,429.33 C854.00,431.17 854.31,432.98 854.69,433.35 C855.40,434.07 855.88,436.39 856.36,441.56 C856.52,443.24 857.06,445.27 857.57,446.06 C858.07,446.85 858.57,448.40 858.68,449.50 C859.12,454.13 861.07,461.24 862.97,465.17 C864.11,467.53 864.74,470.25 864.40,471.32 C863.97,472.68 864.15,473.03 865.00,472.50 C865.88,471.95 866.02,472.37 865.50,474.00 C864.98,475.63 865.12,476.05 866.00,475.50 C866.85,474.98 867.04,475.32 866.62,476.62 C865.98,478.68 868.49,488.06 869.92,488.95 C870.41,489.25 871.05,491.53 871.33,494.00 C871.81,498.14 874.49,505.00 875.63,505.00 C875.90,505.00 875.81,504.51 875.44,503.90 C874.95,503.10 875.33,503.10 876.82,503.90 C878.49,504.80 882.65,504.83 883.75,503.95 C883.89,503.84 884.53,503.69 885.19,503.62 C885.84,503.56 886.98,501.02 887.72,498.00 C888.45,494.98 889.53,491.56 890.12,490.40 C891.64,487.39 896.02,474.89 896.44,472.37 C896.64,471.20 897.48,469.17 898.30,467.87 C899.59,465.85 900.48,463.21 903.66,452.08 C903.91,451.20 904.42,451.02 905.01,451.61 C906.06,452.66 904.19,460.00 902.86,460.00 C902.42,460.00 902.32,460.67 902.64,461.50 C902.95,462.33 902.73,463.00 902.14,463.00 C901.55,463.00 901.32,463.67 901.64,464.50 C901.95,465.33 901.69,466.00 901.05,466.00 C900.41,466.00 900.14,466.43 900.47,466.95 C901.20,468.13 889.12,502.24 887.61,503.23 C887.00,503.64 886.91,503.98 887.40,503.98 C887.90,503.99 887.50,504.90 886.50,506.00 ZM 605.56 505.93 C601.46,510.47 596.76,508.85 590.42,500.71 C576.11,482.36 567.19,470.14 567.73,469.60 C568.06,469.27 567.31,469.00 566.07,469.00 C564.67,469.00 561.93,470.91 558.90,474.01 L 554.00 479.01 L 554.00 503.75 L 551.35 503.75 C549.20,503.75 549.01,503.57 550.35,502.83 C551.72,502.05 552.00,500.11 552.00,491.15 C552.00,483.89 551.59,479.99 550.75,479.14 C549.75,478.13 549.88,478.03 551.41,478.61 C552.85,479.16 553.12,479.01 552.51,478.02 C552.01,477.21 552.08,476.93 552.69,477.31 C554.16,478.22 558.81,472.82 558.45,470.62 C558.22,469.21 558.43,469.03 559.28,469.88 C560.13,470.73 560.95,470.34 562.54,468.35 L 564.66 465.69 L 568.07 468.09 C572.45,471.19 574.06,473.18 573.48,474.80 C573.23,475.52 573.44,475.85 573.94,475.54 C574.45,475.22 575.42,476.53 576.11,478.43 C576.80,480.34 577.80,481.62 578.34,481.29 C578.87,480.96 579.03,481.14 578.69,481.69 C578.35,482.25 579.18,483.29 580.53,484.02 C581.89,484.74 583.00,485.96 583.00,486.73 C583.00,487.57 583.49,487.82 584.25,487.37 C585.08,486.87 585.03,487.19 584.11,488.33 C582.89,489.84 582.92,489.97 584.42,489.39 C585.62,488.93 586.28,489.36 586.68,490.87 C586.98,492.04 587.54,493.00 587.90,493.00 C588.27,493.00 588.64,493.93 588.73,495.07 C588.82,496.20 590.56,498.98 592.60,501.25 C598.04,507.27 605.00,507.40 605.00,501.49 C605.00,499.41 601.11,493.40 601.03,495.36 C601.01,495.83 600.15,495.17 599.11,493.89 C598.08,492.61 597.42,491.08 597.64,490.48 C597.87,489.89 596.83,488.30 595.33,486.95 L 592.60 484.50 L 594.43 487.50 C596.60,491.05 595.51,490.10 590.54,484.10 C588.51,481.64 587.15,479.06 587.46,478.25 C587.80,477.37 587.24,476.61 586.02,476.29 C584.92,476.01 584.27,475.37 584.57,474.89 C584.87,474.40 584.65,474.00 584.08,474.00 C583.51,474.00 582.75,472.85 582.40,471.45 C582.05,470.05 581.55,469.12 581.29,469.38 C581.03,469.64 579.50,468.68 577.90,467.25 C575.83,465.41 575.16,464.08 575.60,462.70 C575.94,461.63 575.81,461.00 575.31,461.31 C574.82,461.61 574.35,460.99 574.27,459.92 C574.19,458.85 573.42,457.28 572.56,456.42 C571.70,455.56 571.00,453.97 571.00,452.89 C571.00,451.32 571.35,451.12 572.78,451.88 C573.92,452.49 575.21,452.46 576.41,451.79 C577.89,450.96 578.11,451.03 577.48,452.12 C577.04,452.88 577.86,452.42 579.31,451.10 C580.75,449.79 581.70,448.33 581.42,447.87 C581.13,447.40 582.58,445.21 584.63,442.99 C587.04,440.39 588.61,439.36 589.06,440.10 C589.51,440.83 591.81,439.10 595.36,435.37 C599.61,430.90 600.79,429.02 600.30,427.50 C599.95,426.40 599.71,424.61 599.78,423.51 C599.88,422.07 599.68,421.89 599.08,422.87 C598.50,423.81 598.04,423.88 597.57,423.11 C597.19,422.50 596.43,422.00 595.88,422.00 C595.33,422.00 595.16,422.44 595.49,422.99 C595.86,423.58 595.41,423.71 594.38,423.31 C593.07,422.81 592.80,423.05 593.28,424.28 C593.73,425.47 593.48,425.74 592.29,425.28 C591.16,424.85 590.91,425.04 591.45,425.92 C592.47,427.57 584.27,436.04 582.36,435.31 C581.44,434.95 581.17,435.28 581.56,436.29 C581.88,437.12 581.66,438.09 581.08,438.45 C580.41,438.86 580.26,438.44 580.66,437.30 C581.06,436.19 579.90,436.82 577.61,438.98 C575.58,440.90 573.65,443.53 573.33,444.83 C572.95,446.34 572.47,446.77 572.01,446.01 C571.57,445.30 571.04,446.04 570.68,447.86 C570.34,449.53 569.10,451.41 567.92,452.05 C566.43,452.84 565.97,452.86 566.44,452.10 C566.81,451.49 566.90,451.00 566.63,451.00 C566.36,451.00 565.11,453.06 563.85,455.59 C562.59,458.11 561.40,459.69 561.20,459.09 C561.00,458.49 560.39,458.00 559.86,458.00 C559.32,458.00 559.21,458.56 559.60,459.25 C560.00,459.94 559.95,460.16 559.49,459.75 C559.04,459.33 557.74,459.78 556.62,460.75 C551.86,464.83 561.40,454.32 577.02,438.29 C587.11,427.95 594.84,420.83 596.41,420.43 C600.31,419.45 604.00,422.25 604.00,426.20 C604.00,428.91 602.03,431.33 589.84,443.62 L 575.69 457.90 L 578.43 461.50 C579.95,463.48 580.92,465.77 580.60,466.60 C580.26,467.49 580.45,467.84 581.06,467.47 C581.62,467.11 582.75,467.38 583.56,468.05 C584.68,468.98 584.76,469.59 583.87,470.66 C582.96,471.75 583.03,471.92 584.23,471.47 C585.27,471.07 587.48,473.20 591.37,478.37 C594.47,482.48 597.00,486.05 597.00,486.30 C597.00,486.55 598.78,488.70 600.96,491.08 C603.14,493.46 604.72,495.61 604.48,495.86 C604.23,496.10 604.76,496.83 605.64,497.48 C607.74,499.02 607.70,503.57 605.56,505.93 ZM 635.05 505.95 C632.31,508.69 627.89,508.57 625.17,505.69 C623.02,503.39 623.00,503.05 623.00,463.84 C623.00,426.81 623.12,424.21 624.83,422.65 C626.43,421.21 629.80,421.00 651.76,421.00 C673.24,421.00 677.08,421.23 678.43,422.57 C680.26,424.40 680.55,429.00 678.83,429.00 C678.19,429.00 677.96,429.30 678.32,429.66 C678.69,430.02 678.48,430.92 677.87,431.66 C676.58,433.22 672.18,433.41 670.00,432.00 C668.88,431.28 669.42,431.03 672.13,431.02 C675.89,431.00 679.81,428.11 677.24,427.25 C676.55,427.02 676.25,426.40 676.58,425.87 C676.91,425.34 676.63,424.26 675.96,423.46 C674.97,422.26 670.79,422.00 652.74,422.00 L 630.72 422.00 L 627.94 424.91 C626.41,426.51 625.42,428.09 625.74,428.41 C626.07,428.73 625.82,429.00 625.19,429.00 C624.35,429.00 624.04,438.88 624.05,466.10 C624.06,506.27 624.16,507.03 629.18,505.12 C631.66,504.18 632.43,504.00 634.00,504.00 C634.62,504.00 635.00,498.69 635.00,490.06 C635.00,481.84 634.59,475.86 634.00,475.50 C633.45,475.16 633.01,474.35 633.02,473.69 C633.03,472.93 633.35,473.01 633.92,473.91 C634.61,475.00 634.90,474.77 635.16,472.91 L 635.50 470.50 L 652.43 470.23 C663.24,470.05 669.85,469.54 670.73,468.81 C671.48,468.18 671.97,466.36 671.80,464.76 L 671.50 461.86 L 653.04 461.68 L 634.58 461.50 L 633.59 458.07 C632.87,455.54 632.92,454.53 633.80,454.23 C634.62,453.96 634.95,451.24 634.85,445.67 C634.72,438.63 634.60,438.12 634.00,442.00 L 633.30 446.50 L 633.15 442.31 C633.07,440.00 633.45,437.84 634.00,437.50 C634.55,437.16 634.99,436.35 634.98,435.69 C634.98,434.98 634.58,435.10 634.00,436.00 C633.26,437.15 633.03,436.80 633.03,434.50 C633.03,432.20 633.26,431.85 634.00,433.00 C634.83,434.28 634.97,434.25 634.98,432.75 C635.00,431.19 636.06,431.02 644.75,431.19 L 654.50 431.38 L 645.74 431.94 C640.92,432.25 636.98,432.84 636.99,433.25 C637.00,433.66 637.00,439.62 637.00,446.50 L 637.00 459.00 L 653.42 459.00 C669.79,459.00 673.48,459.41 672.44,461.10 C672.13,461.60 672.36,462.00 672.94,462.00 C673.52,462.00 674.00,463.35 674.00,465.00 C674.00,466.65 673.52,468.00 672.94,468.00 C672.36,468.00 672.15,468.43 672.47,468.95 C673.94,471.33 668.44,472.12 652.69,471.82 L 636.50 471.50 L 636.80 487.70 C637.07,502.91 636.97,504.03 635.05,505.95 ZM 805.84 496.96 C803.52,498.08 801.37,498.94 801.06,498.87 C800.75,498.79 798.47,498.39 796.00,497.97 C789.45,496.87 785.79,495.99 784.57,495.23 C783.98,494.86 782.98,494.48 782.34,494.38 C781.71,494.28 780.36,493.72 779.34,493.13 C777.95,492.32 777.86,492.05 779.00,492.02 C779.85,491.99 779.42,491.42 778.00,490.71 C776.62,490.01 775.50,488.91 775.50,488.25 C775.50,487.60 774.74,486.18 773.82,485.10 C771.35,482.21 768.68,478.00 769.33,478.00 C769.64,478.00 769.19,475.64 768.33,472.75 C766.51,466.65 767.00,458.21 769.60,450.50 C771.00,446.36 771.41,445.14 771.98,445.05 C772.22,445.02 772.49,445.19 772.88,445.42 L 772.90 445.44 C773.85,446.03 771.52,452.66 769.89,454.00 C769.56,454.27 769.35,458.55 769.44,463.50 C769.64,474.64 772.40,481.40 779.38,487.80 C788.60,496.26 798.75,498.19 809.00,493.42 C818.07,489.21 822.55,483.80 825.57,473.42 C829.90,458.51 823.89,442.64 811.19,435.45 C807.15,433.16 805.47,432.82 799.00,432.98 C792.44,433.14 787.92,433.44 785.90,433.87 C785.56,433.94 784.17,435.01 782.80,436.25 C781.43,437.49 779.16,439.46 777.77,440.64 C776.38,441.81 775.00,443.39 774.70,444.14 C774.24,445.27 773.99,445.27 773.17,444.09 C772.63,443.32 772.43,442.04 772.73,441.26 C773.18,440.09 773.43,440.07 774.12,441.17 C774.91,442.40 775.43,441.60 775.09,439.68 C775.01,439.22 775.39,439.12 775.93,439.45 C776.46,439.78 777.37,439.18 777.94,438.10 C779.32,435.54 788.87,431.22 794.96,430.41 C801.04,429.60 811.70,432.92 816.45,437.09 C818.24,438.67 820.07,439.63 820.52,439.23 C820.96,438.83 821.05,439.25 820.73,440.16 C820.04,442.09 823.34,445.53 824.94,444.54 C825.95,443.91 826.47,445.77 826.18,449.00 C826.11,449.83 826.54,451.48 827.15,452.68 C827.89,454.13 828.05,458.66 827.63,466.18 C826.97,477.94 826.88,479.69 826.21,479.95 C826.09,480.00 825.96,480.00 825.80,480.00 L 825.77 480.00 C825.28,480.00 825.14,480.41 825.44,480.91 C826.24,482.20 824.97,485.10 823.90,484.44 C823.40,484.13 823.00,484.53 823.00,485.32 C823.00,486.11 822.24,487.37 821.31,488.13 C819.85,489.31 819.73,489.29 820.46,488.00 C820.93,487.17 820.40,487.40 819.28,488.50 C818.17,489.60 817.46,490.85 817.70,491.27 C817.95,491.70 817.78,491.93 817.32,491.77 C816.87,491.62 816.36,491.95 816.18,492.50 C815.77,493.80 811.74,495.96 810.79,495.37 C810.39,495.13 808.17,495.84 805.84,496.96 ZM 939.79 506.43 C936.39,508.82 931.33,508.42 928.45,505.55 C927.10,504.20 926.02,502.51 926.04,501.80 C926.06,501.08 926.74,501.71 927.54,503.18 C928.83,505.56 929.34,505.76 932.01,505.00 C933.68,504.52 935.25,504.10 935.52,504.06 C935.78,504.03 936.34,503.95 936.75,503.88 C937.16,503.82 938.15,503.71 938.95,503.63 C939.89,503.55 941.33,500.06 943.12,493.50 C944.63,488.00 947.24,478.77 948.94,473.00 C950.63,467.23 952.20,460.63 952.43,458.33 C952.66,456.04 953.57,453.06 954.46,451.70 C955.35,450.34 955.97,447.65 955.84,445.71 C955.71,443.77 956.14,441.54 956.79,440.75 C957.45,439.96 957.65,438.95 957.24,438.50 C956.83,438.05 957.01,437.97 957.63,438.33 C958.36,438.74 959.22,437.25 960.00,434.24 C961.29,429.30 962.24,422.54 961.33,424.79 C960.93,425.78 960.48,425.81 959.42,424.93 C958.61,424.26 956.90,424.06 955.34,424.45 C953.20,424.99 952.84,424.85 953.58,423.77 C954.08,423.02 953.71,423.26 952.75,424.31 C951.00,426.22 950.59,427.84 950.97,431.39 C951.08,432.43 950.79,433.55 950.33,433.89 C948.83,434.98 944.27,450.33 936.98,478.85 C936.37,481.24 935.65,482.99 935.39,482.72 C934.86,482.19 938.43,467.84 945.84,440.72 C950.96,422.00 952.01,420.09 957.25,420.03 C960.51,419.99 964.00,423.14 964.00,426.12 C964.00,429.41 952.95,467.41 951.78,468.14 C951.21,468.49 951.01,469.21 951.34,469.74 C951.94,470.71 945.23,495.07 944.10,496.00 C943.77,496.27 943.40,497.85 943.28,499.49 C943.16,501.14 942.59,502.64 942.02,502.83 C941.45,503.02 941.22,503.55 941.51,504.02 C941.80,504.48 941.03,505.57 939.79,506.43 ZM 550.42 507.39 C547.71,508.43 544.54,508.06 542.22,506.44 L 540.00 504.89 L 540.00 464.51 C540.00,462.50 540.00,460.57 540.00,458.73 C539.99,430.03 539.98,422.93 542.90,421.40 C543.86,420.90 545.14,421.00 546.83,421.12 C547.16,421.15 547.51,421.18 547.87,421.20 C550.92,421.40 552.41,421.93 552.25,422.75 C552.11,423.44 552.45,424.00 553.00,424.00 C553.63,424.00 554.00,431.00 554.00,443.00 C554.00,455.00 553.63,462.00 553.00,462.00 C552.45,462.00 552.00,460.40 552.00,458.44 C552.00,456.11 551.62,455.12 550.90,455.56 C550.14,456.03 550.16,455.56 550.96,454.07 C552.37,451.45 552.16,425.12 550.72,423.25 C550.19,422.56 548.52,422.00 547.00,422.00 C541.82,422.00 541.55,423.29 541.91,446.36 C542.09,457.99 542.21,468.85 542.18,470.50 C541.83,490.32 541.95,504.10 542.48,504.97 C543.17,506.08 548.85,505.83 550.84,504.60 C551.52,504.18 552.00,504.49 552.00,505.33 C552.00,506.13 551.29,507.06 550.42,507.39 ZM 583.00 434.17 C583.00,435.69 583.84,435.03 586.11,431.75 L 588.36 428.50 L 585.68 430.92 C584.20,432.26 583.00,433.72 583.00,434.17 ZM 500.00 482.00 C500.59,483.10 501.30,484.00 501.57,484.00 C501.85,484.00 501.59,483.10 501.00,482.00 C500.41,480.90 499.70,480.00 499.43,480.00 C499.15,480.00 499.41,480.90 500.00,482.00 ZM 569.98 472.48 C571.76,474.63 572.25,474.37 570.80,472.05 C570.12,470.97 569.38,470.28 569.15,470.52 C568.91,470.76 569.28,471.64 569.98,472.48 ZM 830.80 438.05 C831.47,439.12 831.84,440.00 831.63,440.00 C830.90,440.00 828.72,436.95 829.15,436.52 C829.38,436.28 830.12,436.97 830.80,438.05 ZM 545.00 504.61 C545.00,505.42 543.09,504.96 542.51,504.01 C542.16,503.44 542.56,503.28 543.45,503.62 C544.30,503.95 545.00,504.39 545.00,504.61 ZM 580.50 449.00 C580.16,449.55 579.68,450.00 579.44,450.00 C579.20,450.00 579.00,449.55 579.00,449.00 C579.00,448.45 579.48,448.00 580.06,448.00 C580.64,448.00 580.84,448.45 580.50,449.00 Z" fill="rgb(19,36,54)"/>
<path d="M 791.83 506.03 C791.65,505.52 789.47,505.01 787.00,504.90 C782.78,504.71 775.00,501.49 775.00,499.93 C775.00,499.55 774.04,498.98 772.87,498.68 C771.38,498.29 770.93,497.62 771.38,496.45 C771.85,495.22 771.61,494.94 770.48,495.37 C769.46,495.76 768.63,495.16 768.03,493.59 C767.54,492.29 765.72,489.61 763.99,487.64 C762.26,485.67 761.11,483.63 761.44,483.10 C761.77,482.57 760.87,478.84 759.45,474.82 C755.72,464.28 755.57,463.23 757.33,459.69 C758.19,457.94 759.86,453.37 761.03,449.54 C762.20,445.71 764.03,441.37 765.08,439.89 C767.29,436.78 767.54,435.55 765.75,436.63 C764.90,437.14 764.94,436.84 765.87,435.69 C767.43,433.77 768.49,433.40 767.40,435.15 C766.97,435.85 767.13,436.04 767.80,435.62 C768.41,435.24 768.63,434.20 768.28,433.29 C767.81,432.06 768.07,431.81 769.31,432.29 C770.33,432.68 770.88,432.47 770.74,431.75 C770.58,430.98 771.68,430.67 773.86,430.87 C775.71,431.04 777.00,430.80 776.72,430.34 C776.16,429.41 777.91,427.63 779.76,427.26 C780.40,427.13 783.09,425.71 785.72,424.10 C789.77,421.63 791.53,421.19 797.25,421.20 C800.96,421.21 804.00,421.60 804.00,422.07 C804.00,422.53 807.15,423.85 811.00,425.00 C814.85,426.15 818.00,427.52 818.00,428.04 C818.00,428.57 818.48,429.00 819.07,429.00 C819.65,429.00 821.79,430.57 823.82,432.50 C825.84,434.42 828.06,435.79 828.75,435.53 C830.51,434.87 833.19,439.33 832.35,441.52 C831.84,442.85 832.01,443.11 832.96,442.52 C833.83,441.99 834.11,442.18 833.80,443.09 C833.55,443.84 834.34,445.53 835.55,446.84 C837.90,449.37 838.51,455.13 838.06,470.44 C837.89,476.15 837.42,477.90 835.43,480.27 C833.36,482.72 832.82,484.36 833.04,487.54 C833.09,488.39 830.23,491.00 829.25,491.00 C828.75,491.00 827.26,492.22 825.92,493.72 C824.43,495.40 824.23,495.88 825.41,494.97 C827.22,493.58 827.26,493.63 826.09,495.83 C825.38,497.15 824.25,497.93 823.47,497.63 C822.54,497.27 822.30,497.61 822.72,498.71 C823.10,499.70 822.93,500.08 822.30,499.68 C821.73,499.33 820.28,499.89 819.08,500.93 C817.87,501.98 814.56,503.11 811.70,503.47 C803.94,504.42 801.00,505.08 801.00,505.86 C801.00,506.93 792.20,507.09 791.83,506.03 ZM 805.84 496.96 C808.17,495.84 810.39,495.13 810.79,495.37 C811.74,495.96 815.77,493.80 816.18,492.50 C816.36,491.95 816.87,491.62 817.32,491.77 C817.78,491.93 817.95,491.70 817.70,491.27 C817.46,490.85 818.17,489.60 819.28,488.50 C820.40,487.40 820.93,487.17 820.46,488.00 C819.73,489.29 819.85,489.31 821.31,488.13 C822.24,487.37 823.00,486.11 823.00,485.32 C823.00,484.53 823.40,484.13 823.90,484.44 C824.97,485.10 826.24,482.20 825.44,480.91 C825.14,480.41 825.28,480.00 825.77,480.00 L 825.80 480.00 C825.96,480.00 826.09,480.00 826.21,479.95 C826.88,479.69 826.97,477.94 827.63,466.18 C828.05,458.66 827.89,454.13 827.15,452.68 C826.54,451.48 826.11,449.83 826.18,449.00 C826.47,445.77 825.95,443.91 824.94,444.54 C823.34,445.53 820.04,442.09 820.73,440.16 C821.05,439.25 820.96,438.83 820.52,439.23 C820.07,439.63 818.24,438.67 816.45,437.09 C811.70,432.92 801.04,429.60 794.96,430.41 C788.87,431.22 779.32,435.54 777.94,438.10 C777.37,439.18 776.46,439.78 775.93,439.45 C775.39,439.12 775.01,439.22 775.09,439.68 C775.43,441.60 774.91,442.40 774.12,441.17 C773.43,440.07 773.18,440.09 772.73,441.26 C772.43,442.04 772.63,443.32 773.17,444.09 C773.99,445.27 774.24,445.27 774.70,444.14 C775.00,443.39 776.38,441.81 777.77,440.64 C779.16,439.46 781.43,437.49 782.80,436.25 C784.17,435.01 785.56,433.94 785.90,433.87 C787.92,433.44 792.44,433.14 799.00,432.98 C805.47,432.82 807.15,433.16 811.19,435.45 C815.13,437.68 818.42,440.74 820.97,444.35 C818.14,440.60 814.45,437.25 810.94,435.47 C806.98,433.46 804.61,433.00 798.28,433.02 C785.57,433.06 777.56,438.06 772.47,449.14 C773.07,447.35 773.35,445.72 772.90,445.44 L 772.88 445.42 C772.49,445.19 772.22,445.02 771.98,445.05 C771.41,445.14 771.00,446.36 769.60,450.50 C767.00,458.21 766.51,466.65 768.33,472.75 C769.19,475.64 769.64,478.00 769.33,478.00 C768.68,478.00 771.35,482.21 773.82,485.10 C774.74,486.18 775.50,487.60 775.50,488.25 C775.50,488.91 776.62,490.01 778.00,490.71 C779.42,491.42 779.85,491.99 779.00,492.02 C777.86,492.05 777.95,492.32 779.34,493.13 C780.36,493.72 781.71,494.28 782.34,494.38 C782.98,494.48 783.98,494.86 784.57,495.23 C785.79,495.99 789.45,496.87 796.00,497.97 C798.47,498.39 800.75,498.79 801.06,498.87 C801.37,498.94 803.52,498.08 805.84,496.96 ZM 926.05 501.96 C925.24,500.33 924.44,498.31 923.61,495.84 C922.08,491.25 920.47,486.60 920.05,485.50 C919.62,484.40 918.71,481.70 918.02,479.50 C917.32,477.30 915.94,473.68 914.95,471.47 C913.96,469.25 912.85,466.10 912.50,464.47 C912.14,462.83 911.46,460.60 911.00,459.50 C910.53,458.40 909.75,456.18 909.26,454.56 C908.77,452.95 907.94,451.48 907.40,451.30 C907.03,451.18 905.96,453.35 904.72,456.62 C905.30,454.55 905.57,452.17 905.01,451.61 C904.42,451.02 903.91,451.20 903.66,452.08 C900.48,463.21 899.59,465.85 898.30,467.87 C897.48,469.17 896.64,471.20 896.44,472.37 C896.02,474.89 891.64,487.39 890.12,490.40 C889.53,491.56 888.45,494.98 887.72,498.00 C886.98,501.02 885.84,503.56 885.19,503.62 C884.53,503.69 883.89,503.84 883.75,503.95 C882.65,504.83 878.49,504.80 876.82,503.90 C875.33,503.10 874.95,503.10 875.44,503.90 C875.81,504.51 875.90,505.00 875.63,505.00 C874.49,505.00 871.81,498.14 871.33,494.00 C871.05,491.53 870.41,489.25 869.92,488.95 C868.49,488.06 865.98,478.68 866.62,476.62 C867.04,475.32 866.85,474.98 866.00,475.50 C865.12,476.05 864.98,475.63 865.50,474.00 C866.02,472.37 865.88,471.95 865.00,472.50 C864.15,473.03 863.97,472.68 864.40,471.32 C864.74,470.25 864.11,467.53 862.97,465.17 C861.07,461.24 859.12,454.13 858.68,449.50 C858.57,448.40 858.07,446.85 857.57,446.06 C857.06,445.27 856.52,443.24 856.36,441.56 C855.88,436.39 855.40,434.07 854.69,433.35 C854.31,432.98 854.00,431.17 854.00,429.33 C854.00,425.60 854.46,425.54 860.45,428.51 C864.38,430.46 864.52,430.71 865.08,436.53 C865.39,439.84 866.42,443.70 867.35,445.13 C868.28,446.55 869.30,450.14 869.62,453.10 C869.94,456.07 870.59,459.23 871.07,460.12 C871.54,461.01 871.65,462.02 871.30,462.37 C870.95,462.72 871.22,463.00 871.89,463.00 C872.57,463.00 872.88,463.39 872.58,463.87 C871.57,465.50 879.16,486.00 880.76,486.00 C882.23,486.00 885.07,481.92 884.38,480.80 C883.96,480.13 884.15,479.97 884.85,480.40 C885.62,480.88 886.00,480.11 886.00,478.03 C886.00,476.34 886.92,472.37 888.05,469.23 C889.18,466.08 891.20,460.12 892.54,456.00 C893.88,451.88 895.83,447.22 896.87,445.66 C897.91,444.09 898.57,442.06 898.33,441.14 C897.63,438.48 901.25,431.54 903.51,431.20 C904.60,431.04 906.17,430.63 907.00,430.30 C907.83,429.97 909.10,429.58 909.83,429.43 C911.32,429.12 914.40,435.55 913.47,437.04 C913.15,437.57 913.25,438.00 913.70,438.00 C914.56,438.00 916.52,441.98 917.96,446.66 C918.44,448.22 919.99,452.75 921.41,456.73 C922.84,460.71 924.00,465.51 924.00,467.41 C924.00,469.31 924.60,471.46 925.33,472.19 C926.06,472.92 926.45,474.14 926.20,474.90 C925.94,475.67 926.20,476.00 926.78,475.64 C927.40,475.25 927.62,475.73 927.33,476.85 C926.81,478.83 931.35,484.98 932.48,483.85 C933.29,483.05 925.13,459.63 923.88,459.16 C923.39,458.98 923.22,458.46 923.50,458.00 C923.74,457.61 922.57,453.60 920.93,448.68 C921.98,451.58 923.08,454.66 924.18,457.82 C929.24,472.23 933.72,483.68 934.12,483.26 C934.53,482.84 936.24,477.10 937.92,470.50 C941.22,457.57 943.95,447.32 946.15,439.60 C946.05,439.97 945.95,440.34 945.84,440.72 C938.43,467.84 934.86,482.19 935.39,482.72 C935.65,482.99 936.37,481.24 936.98,478.85 C944.27,450.33 948.83,434.98 950.33,433.89 C950.79,433.55 951.08,432.43 950.97,431.39 C950.59,427.84 951.00,426.22 952.75,424.31 C953.71,423.26 954.08,423.02 953.58,423.77 C952.84,424.85 953.20,424.99 955.34,424.45 C956.90,424.06 958.61,424.26 959.42,424.93 C960.48,425.81 960.93,425.78 961.33,424.79 C962.24,422.54 961.29,429.30 960.00,434.24 C959.22,437.25 958.36,438.74 957.63,438.33 C957.01,437.97 956.83,438.05 957.24,438.50 C957.65,438.95 957.45,439.96 956.79,440.75 C956.14,441.54 955.71,443.77 955.84,445.71 C955.97,447.65 955.35,450.34 954.46,451.70 C953.57,453.06 952.66,456.04 952.43,458.33 C952.20,460.63 950.63,467.23 948.94,473.00 C947.24,478.77 944.63,488.00 943.12,493.50 C941.33,500.06 939.89,503.55 938.95,503.63 C938.15,503.71 937.16,503.82 936.75,503.88 C936.34,503.95 935.78,504.03 935.52,504.06 C935.25,504.10 933.68,504.52 932.01,505.00 C929.34,505.76 928.83,505.56 927.54,503.18 C926.74,501.71 926.06,501.08 926.04,501.80 C926.04,501.85 926.04,501.90 926.05,501.96 ZM 498.84 499.05 C495.19,494.32 489.72,486.92 481.41,475.50 C462.82,449.98 460.54,447.04 459.25,447.02 C458.28,447.00 458.00,453.53 458.00,476.38 L 458.00 505.77 L 455.75 506.37 C451.82,507.42 448.19,507.05 446.57,505.43 C445.20,504.06 445.00,499.06 445.01,465.54 C445.02,486.16 445.37,503.11 445.80,503.38 C445.88,503.42 445.95,503.49 446.01,503.55 C446.10,503.63 446.17,503.71 446.24,503.70 C446.75,503.64 446.72,499.11 446.94,461.50 C447.06,440.60 447.38,424.05 447.65,424.71 C448.03,425.64 448.58,425.66 450.00,424.77 C451.41,423.89 452.48,423.90 454.50,424.82 C455.96,425.48 457.56,425.77 458.06,425.46 C458.57,425.15 458.68,425.67 458.32,426.61 C457.86,427.82 458.03,428.10 458.90,427.56 C460.36,426.66 462.92,429.65 462.97,432.31 C462.99,433.30 463.45,433.84 464.00,433.50 C464.55,433.16 465.00,433.61 465.00,434.50 C465.00,435.39 465.45,435.84 466.00,435.50 C466.55,435.16 467.00,435.34 467.00,435.91 C467.00,436.47 468.34,438.46 469.98,440.32 C471.61,442.19 472.65,444.02 472.28,444.39 C471.91,444.76 472.71,446.20 474.05,447.59 C480.72,454.48 481.84,455.75 484.06,459.00 C485.37,460.92 487.21,463.34 488.15,464.36 C489.09,465.38 489.63,466.80 489.36,467.51 C489.09,468.22 489.41,469.14 490.09,469.55 C490.93,470.08 491.06,469.88 490.49,468.90 C489.31,466.87 490.28,467.87 494.85,473.42 C497.08,476.13 498.66,478.74 498.37,479.22 C498.07,479.70 498.53,481.16 499.38,482.46 C500.75,484.55 501.24,484.70 503.42,483.67 C504.78,483.03 506.10,481.74 506.34,480.82 C506.58,479.89 506.77,467.41 506.75,453.08 C506.73,434.02 507.05,426.64 507.95,425.56 C509.37,423.85 514.96,423.92 514.30,425.65 C514.06,426.28 514.34,427.09 514.93,427.46 C515.66,427.91 516.00,440.08 516.00,465.54 L 516.00 502.96 L 513.75 503.53 C512.51,503.84 510.60,504.06 509.50,504.03 C508.40,503.99 506.44,503.95 505.14,503.93 C503.84,503.91 503.02,503.64 503.33,503.34 C503.63,503.03 502.78,501.60 501.43,500.14 C500.08,498.69 499.19,496.96 499.44,496.30 C499.69,495.64 499.11,494.85 498.14,494.54 C497.17,494.24 494.83,491.52 492.94,488.51 C491.05,485.49 489.05,483.01 488.50,483.00 C487.95,482.98 488.05,482.62 488.73,482.19 C489.63,481.62 489.18,480.55 487.09,478.26 C485.51,476.53 484.49,474.84 484.83,474.50 C485.16,474.17 484.67,474.19 483.72,474.55 C482.62,474.98 482.00,474.73 481.99,473.86 C481.99,473.11 480.38,470.81 478.43,468.75 C476.29,466.49 475.16,464.51 475.60,463.75 C476.00,463.06 475.96,462.83 475.51,463.23 C475.06,463.64 474.11,463.19 473.38,462.23 C471.81,460.17 471.60,458.63 473.00,459.50 C474.63,460.51 474.14,459.36 472.31,457.87 C470.87,456.70 470.74,456.71 471.46,457.90 C472.04,458.87 471.94,459.08 471.14,458.59 C470.49,458.19 470.26,457.39 470.61,456.82 C470.97,456.25 470.64,455.40 469.89,454.93 C469.13,454.46 468.51,453.28 468.51,452.29 C468.50,451.10 467.88,450.61 466.65,450.82 C465.54,451.01 465.06,450.71 465.46,450.07 C465.82,449.48 465.61,449.00 465.00,449.00 C464.39,449.00 464.16,448.56 464.49,448.01 C464.86,447.42 464.41,447.29 463.39,447.68 C462.13,448.16 461.89,447.99 462.49,447.02 C463.04,446.13 462.92,445.93 462.14,446.41 C461.85,446.59 461.62,446.73 461.51,446.94 C461.06,447.73 462.38,449.52 468.92,458.38 L 469.01 458.50 C472.66,463.45 479.62,472.90 484.48,479.50 C489.34,486.10 493.58,491.73 493.91,492.00 C494.25,492.27 495.70,494.33 497.15,496.56 C497.71,497.44 498.28,498.27 498.84,499.05 ZM 553.26 503.75 C552.96,504.61 552.54,505.19 551.96,505.81 C551.97,505.69 552.00,505.51 552.00,505.33 C552.00,504.49 551.52,504.18 550.84,504.60 C548.85,505.83 543.17,506.08 542.48,504.97 C541.95,504.10 541.83,490.32 542.18,470.50 C542.21,468.85 542.09,457.99 541.91,446.36 C541.55,423.29 541.82,422.00 547.00,422.00 C548.52,422.00 550.19,422.56 550.72,423.25 C552.16,425.12 552.37,451.45 550.96,454.07 C550.16,455.56 550.14,456.03 550.90,455.56 C551.62,455.12 552.00,456.11 552.00,458.44 C552.00,460.40 552.45,462.00 553.00,462.00 C553.62,462.00 553.99,455.16 554.00,443.40 L 554.00 461.94 L 573.11 442.05 C583.61,431.11 593.58,421.59 595.24,420.90 C595.47,420.80 595.70,420.72 595.93,420.65 C593.62,421.96 586.32,428.76 577.02,438.29 C561.40,454.32 551.86,464.83 556.62,460.75 C557.74,459.78 559.04,459.33 559.49,459.75 C559.95,460.16 560.00,459.94 559.60,459.25 C559.21,458.56 559.32,458.00 559.86,458.00 C560.39,458.00 561.00,458.49 561.20,459.09 C561.40,459.69 562.59,458.11 563.85,455.59 C565.11,453.06 566.36,451.00 566.63,451.00 C566.90,451.00 566.81,451.49 566.44,452.10 C565.97,452.86 566.43,452.84 567.92,452.05 C569.10,451.41 570.34,449.53 570.68,447.86 C571.04,446.04 571.57,445.30 572.01,446.01 C572.47,446.77 572.95,446.34 573.33,444.83 C573.65,443.53 575.58,440.90 577.61,438.98 C579.90,436.82 581.06,436.19 580.66,437.30 C580.26,438.44 580.41,438.86 581.08,438.45 C581.66,438.09 581.88,437.12 581.56,436.29 C581.17,435.28 581.44,434.95 582.36,435.31 C584.27,436.04 592.47,427.57 591.45,425.92 C590.91,425.04 591.16,424.85 592.29,425.28 C593.48,425.74 593.73,425.47 593.28,424.28 C592.80,423.05 593.07,422.81 594.38,423.31 C595.41,423.71 595.86,423.58 595.49,422.99 C595.16,422.44 595.33,422.00 595.88,422.00 C596.43,422.00 597.19,422.50 597.57,423.11 C598.04,423.88 598.50,423.81 599.08,422.87 C599.68,421.89 599.88,422.07 599.78,423.51 C599.71,424.61 599.95,426.40 600.30,427.50 C600.79,429.02 599.61,430.90 595.36,435.37 C591.81,439.10 589.51,440.83 589.06,440.10 C588.61,439.36 587.04,440.39 584.63,442.99 C582.58,445.21 581.13,447.40 581.42,447.87 C581.70,448.33 580.75,449.79 579.31,451.10 C577.86,452.42 577.04,452.88 577.48,452.12 C578.11,451.03 577.89,450.96 576.41,451.79 C575.21,452.46 573.92,452.49 572.78,451.88 C571.35,451.12 571.00,451.32 571.00,452.89 C571.00,453.97 571.70,455.56 572.56,456.42 C573.42,457.28 574.19,458.85 574.27,459.92 C574.35,460.99 574.82,461.61 575.31,461.31 C575.81,461.00 575.94,461.63 575.60,462.70 C575.16,464.08 575.83,465.41 577.90,467.25 C579.50,468.68 581.03,469.64 581.29,469.38 C581.55,469.12 582.05,470.05 582.40,471.45 C582.75,472.85 583.51,474.00 584.08,474.00 C584.65,474.00 584.87,474.40 584.57,474.89 C584.27,475.37 584.92,476.01 586.02,476.29 C587.24,476.61 587.80,477.37 587.46,478.25 C587.15,479.06 588.51,481.64 590.54,484.10 C595.51,490.10 596.60,491.05 594.43,487.50 L 592.60 484.50 L 595.33 486.95 C596.83,488.30 597.87,489.89 597.64,490.48 C597.42,491.08 598.08,492.61 599.11,493.89 C600.15,495.17 601.01,495.83 601.03,495.36 C601.11,493.40 605.00,499.41 605.00,501.49 C605.00,507.40 598.04,507.27 592.60,501.25 C590.56,498.98 588.82,496.20 588.73,495.07 C588.64,493.93 588.27,493.00 587.90,493.00 C587.54,493.00 586.98,492.04 586.68,490.87 C586.28,489.36 585.62,488.93 584.42,489.39 C582.92,489.97 582.89,489.84 584.11,488.33 C585.03,487.19 585.08,486.87 584.25,487.37 C583.49,487.82 583.00,487.57 583.00,486.73 C583.00,485.96 581.89,484.74 580.53,484.02 C579.18,483.29 578.35,482.25 578.69,481.69 C579.03,481.14 578.87,480.96 578.34,481.29 C577.80,481.62 576.80,480.34 576.11,478.43 C575.42,476.53 574.45,475.22 573.94,475.54 C573.44,475.85 573.23,475.52 573.48,474.80 C574.06,473.18 572.45,471.19 568.07,468.09 L 564.66 465.69 L 562.54 468.35 C560.95,470.34 560.13,470.73 559.28,469.88 C558.43,469.03 558.22,469.21 558.45,470.62 C558.81,472.82 554.16,478.22 552.69,477.31 C552.08,476.93 552.01,477.21 552.51,478.02 C553.12,479.01 552.85,479.16 551.41,478.61 C549.88,478.03 549.75,478.13 550.75,479.14 C551.59,479.99 552.00,483.89 552.00,491.15 C552.00,500.11 551.72,502.05 550.35,502.83 C549.01,503.57 549.20,503.75 551.35,503.75 ZM 672.50 432.85 C669.54,433.07 664.83,433.15 657.00,433.25 L 637.50 433.50 L 637.22 446.25 L 637.00 456.28 L 637.00 446.50 C637.00,439.62 637.00,433.66 636.99,433.25 C636.98,432.84 640.92,432.25 645.74,431.94 L 654.50 431.38 L 644.75 431.19 C636.06,431.02 635.00,431.19 634.98,432.75 C634.97,434.25 634.83,434.28 634.00,433.00 C633.26,431.85 633.03,432.20 633.03,434.50 C633.03,436.80 633.26,437.15 634.00,436.00 C634.58,435.10 634.98,434.98 634.98,435.69 C634.99,436.35 634.55,437.16 634.00,437.50 C633.45,437.84 633.07,440.00 633.15,442.31 L 633.30 446.50 L 634.00 442.00 C634.60,438.12 634.72,438.63 634.85,445.67 C634.95,451.24 634.62,453.96 633.80,454.23 C632.92,454.53 632.87,455.54 633.59,458.07 L 634.58 461.50 L 653.04 461.68 L 671.50 461.86 L 671.80 464.76 C671.97,466.36 671.48,468.18 670.73,468.81 C669.85,469.54 663.24,470.05 652.43,470.23 L 635.50 470.50 L 635.16 472.91 C634.90,474.77 634.61,475.00 633.92,473.91 C633.35,473.01 633.03,472.93 633.02,473.69 C633.01,474.35 633.45,475.16 634.00,475.50 C634.59,475.86 635.00,481.84 635.00,490.06 C635.00,498.69 634.62,504.00 634.00,504.00 C632.43,504.00 631.66,504.18 629.18,505.12 C624.16,507.03 624.06,506.27 624.05,466.10 C624.04,438.88 624.35,429.00 625.19,429.00 C625.82,429.00 626.07,428.73 625.74,428.41 C625.42,428.09 626.41,426.51 627.94,424.91 L 630.72 422.00 L 652.74 422.00 C670.79,422.00 674.97,422.26 675.96,423.46 C676.63,424.26 676.91,425.34 676.58,425.87 C676.25,426.40 676.55,427.02 677.24,427.25 C679.81,428.11 675.89,431.00 672.13,431.02 C669.42,431.03 668.88,431.28 670.00,432.00 C670.67,432.44 671.56,432.72 672.50,432.85 ZM 701.61 504.82 C702.10,504.04 701.77,503.87 700.61,504.32 C699.46,504.76 699.13,504.60 699.61,503.82 C700.09,503.05 699.78,502.87 698.71,503.28 C697.53,503.73 697.27,503.47 697.72,502.29 C698.13,501.21 697.95,500.91 697.17,501.39 C696.28,501.94 696.02,492.58 696.07,462.81 C696.11,441.19 696.48,424.37 696.90,425.43 C697.57,427.15 697.72,427.18 698.29,425.68 C699.27,423.12 702.74,423.68 704.73,426.70 C706.31,429.11 706.55,433.04 707.00,462.89 L 707.50 496.37 L 710.50 497.13 C714.51,498.15 745.94,498.70 745.35,497.75 C744.48,496.36 746.84,496.99 748.43,498.57 C751.08,501.22 750.10,503.13 745.21,504.80 C740.55,506.39 700.63,506.42 701.61,504.82 ZM 414.50 504.28 C413.40,504.01 411.71,502.95 410.75,501.93 C409.15,500.24 409.00,496.95 409.02,462.79 C409.02,442.08 409.41,426.09 409.88,426.83 C410.56,427.91 410.84,427.86 411.33,426.58 C412.06,424.67 415.84,424.56 418.25,426.39 C419.86,427.62 420.00,430.67 420.00,464.93 C420.00,495.85 419.76,502.38 418.57,503.57 C417.79,504.36 417.00,504.95 416.82,504.88 C416.64,504.82 415.60,504.55 414.50,504.28 ZM 636.90 498.58 C636.94,496.10 636.89,492.65 636.80,487.70 L 636.50 471.50 L 652.69 471.82 C658.84,471.94 663.43,471.89 666.65,471.64 C663.60,471.93 659.30,472.00 653.28,472.00 L 637.00 472.00 L 637.00 488.00 C637.00,492.76 636.98,496.13 636.90,498.58 ZM 587.41 496.84 C583.86,492.40 579.34,486.49 573.69,478.88 C568.92,472.47 567.03,469.75 565.13,469.74 C563.80,469.73 562.47,471.06 560.13,473.37 C559.91,473.59 559.69,473.82 559.45,474.05 L 554.00 479.43 L 554.00 479.01 L 558.90 474.01 C561.93,470.91 564.67,469.00 566.07,469.00 C567.31,469.00 568.06,469.27 567.73,469.60 C567.23,470.10 574.87,480.66 587.41,496.84 ZM 515.55 505.55 C515.22,505.87 514.88,506.16 514.53,506.41 C514.77,505.96 514.76,505.43 514.47,504.96 C513.94,504.09 514.09,503.94 514.96,504.47 C515.69,504.93 516.59,504.68 517.10,503.88 C517.58,503.12 517.98,485.04 517.98,463.70 L 518.00 424.91 L 518.00 503.09 ZM 957.39 451.30 C956.07,456.02 954.61,461.15 953.09,466.46 C951.41,472.30 949.97,477.33 948.71,481.64 C950.31,475.75 951.62,470.20 951.34,469.74 C951.01,469.21 951.21,468.49 951.78,468.14 C952.30,467.81 954.79,460.07 957.39,451.30 ZM 583.00 434.17 C583.00,433.72 584.20,432.26 585.68,430.92 L 588.36 428.50 L 586.11 431.75 C583.84,435.03 583.00,435.69 583.00,434.17 ZM 748.56 506.58 C751.31,504.56 751.21,499.01 748.38,496.75 C747.98,496.44 747.56,496.18 746.99,495.96 C748.87,496.30 749.86,496.81 750.38,497.63 C750.97,498.54 750.98,499.84 750.98,501.69 C751.00,503.87 750.29,505.38 748.78,506.44 C748.70,506.50 748.61,506.56 748.52,506.61 ZM 805.89 508.20 C795.90,510.02 785.02,508.13 775.76,502.71 C773.56,501.42 771.27,499.60 769.07,497.46 C777.36,505.08 788.29,509.13 800.22,508.63 C802.50,508.53 804.31,508.41 805.89,508.20 ZM 580.60 466.60 C580.87,465.89 580.19,464.10 579.04,462.35 L 581.64 465.73 C582.13,466.36 582.68,467.07 583.27,467.83 C582.50,467.32 581.56,467.16 581.06,467.47 C580.45,467.84 580.26,467.49 580.60,466.60 ZM 584.48 469.40 C586.03,471.42 587.76,473.69 589.46,475.90 C586.73,472.53 585.09,471.14 584.23,471.47 C583.03,471.92 582.96,471.75 583.87,470.66 C584.28,470.17 584.48,469.78 584.48,469.40 ZM 771.13 452.28 C769.82,455.73 769.57,458.27 769.59,464.00 C769.60,465.52 769.63,466.83 769.68,467.99 C769.55,466.57 769.47,465.08 769.44,463.50 C769.35,458.55 769.56,454.27 769.89,454.00 C770.28,453.68 770.71,453.06 771.13,452.28 ZM 901.63 465.70 C899.61,471.76 897.47,477.95 895.43,483.61 C898.32,475.35 900.81,467.50 900.47,466.95 C900.14,466.43 900.41,466.00 901.05,466.00 C901.31,466.00 901.51,465.89 901.63,465.70 ZM 500.00 482.00 C499.41,480.90 499.15,480.00 499.43,480.00 C499.70,480.00 500.41,480.90 501.00,482.00 C501.59,483.10 501.85,484.00 501.57,484.00 C501.30,484.00 500.59,483.10 500.00,482.00 ZM 569.98 472.48 C569.28,471.64 568.91,470.76 569.15,470.52 C569.38,470.28 570.12,470.97 570.80,472.05 C572.25,474.37 571.76,474.63 569.98,472.48 ZM 830.80 438.05 C830.12,436.97 829.38,436.28 829.15,436.52 C828.72,436.95 830.90,440.00 831.63,440.00 C831.84,440.00 831.47,439.12 830.80,438.05 ZM 553.36 424.91 C553.25,424.31 553.13,424.00 553.00,424.00 C552.45,424.00 552.11,423.44 552.25,422.75 C552.41,421.93 550.92,421.40 547.87,421.20 C547.51,421.18 547.16,421.15 546.83,421.12 C545.97,421.06 545.22,421.00 544.57,421.03 C545.16,420.98 545.82,420.98 546.57,420.99 C546.88,421.00 547.20,421.00 547.54,421.00 C550.86,421.00 552.18,421.47 552.96,422.93 C553.11,423.20 553.24,423.88 553.36,424.91 ZM 475.77 444.80 C474.87,443.74 474.12,443.00 473.83,443.00 C473.37,443.00 473.00,442.53 473.00,441.95 C473.00,441.50 470.88,438.31 467.94,434.29 ZM 545.00 504.61 C545.00,504.39 544.30,503.95 543.45,503.62 C542.56,503.28 542.16,503.44 542.51,504.01 C543.09,504.96 545.00,505.42 545.00,504.61 ZM 592.79 480.27 C593.39,481.06 593.96,481.80 594.49,482.50 C596.95,485.74 599.69,489.31 601.74,491.95 C601.49,491.67 601.23,491.38 600.96,491.08 C598.78,488.70 597.00,486.55 597.00,486.30 C597.00,486.09 595.21,483.53 592.79,480.27 ZM 580.50 449.00 C580.84,448.45 580.64,448.00 580.06,448.00 C579.48,448.00 579.00,448.45 579.00,449.00 C579.00,449.55 579.20,450.00 579.44,450.00 C579.68,450.00 580.16,449.55 580.50,449.00 ZM 867.05 485.80 C865.44,480.44 863.47,473.64 860.99,465.00 C859.58,460.06 858.23,455.28 857.01,450.83 C859.81,460.54 863.49,473.34 866.10,482.50 C866.43,483.66 866.74,484.76 867.05,485.80 ZM 823.80 500.43 C823.93,500.29 824.00,500.18 824.00,500.10 C824.00,499.56 825.20,498.52 826.67,497.80 C828.70,496.81 831.88,493.02 834.52,488.84 C834.21,489.34 833.89,489.84 833.56,490.34 C830.86,494.40 827.79,497.62 823.80,500.43 ZM 672.66 469.90 C672.75,469.61 672.68,469.30 672.47,468.95 C672.15,468.43 672.36,468.00 672.94,468.00 C673.50,468.00 673.97,466.74 674.00,465.16 C674.00,465.28 674.00,465.39 674.00,465.51 C674.00,467.53 673.75,468.93 672.66,469.90 ZM 483.16 454.74 C482.94,454.54 482.68,454.36 482.41,454.21 C481.54,453.72 480.81,452.91 480.79,452.41 C480.78,451.97 480.15,450.84 479.27,449.50 C480.59,451.28 481.90,453.03 483.16,454.74 ZM 901.30 429.49 C899.78,432.58 895.43,444.20 890.91,457.32 C889.56,461.24 888.28,464.84 887.13,468.04 C893.07,450.49 899.36,433.37 901.30,429.49 ZM 631.20 507.87 C630.79,507.95 630.38,508.00 630.00,508.00 C628.33,508.00 626.11,507.11 625.00,506.00 C623.85,504.85 623.36,503.88 623.15,495.09 C623.37,503.65 623.89,504.32 625.17,505.69 C626.81,507.43 629.07,508.16 631.20,507.87 ZM 826.15 456.17 C827.37,461.69 827.25,467.63 825.57,473.42 C827.00,468.50 827.15,461.79 826.15,456.17 ZM 488.21 461.55 C487.84,461.10 487.43,460.63 487.00,460.16 C485.35,458.35 484.00,456.48 484.00,455.99 C484.00,455.94 483.99,455.89 483.98,455.84 C485.45,457.82 486.86,459.73 488.21,461.55 ZM 903.91 458.82 C903.64,459.59 903.37,460.40 903.10,461.24 C902.99,461.56 902.89,461.89 902.78,462.21 C902.78,462.00 902.74,461.76 902.64,461.50 C902.32,460.67 902.42,460.00 902.86,460.00 C903.20,460.00 903.57,459.53 903.91,458.82 ZM 508.69 507.88 C507.54,507.71 506.42,507.29 505.43,506.59 C504.69,506.07 503.60,504.96 501.87,502.85 C504.39,505.69 506.76,507.44 508.69,507.88 ZM 834.11 438.01 C833.64,437.38 833.24,437.00 832.98,437.00 C832.44,437.00 832.00,436.38 832.00,435.63 C832.00,435.30 831.80,434.85 831.45,434.32 C832.40,435.49 833.29,436.73 834.11,438.01 ZM 673.98 464.49 C673.90,463.08 673.46,462.00 672.94,462.00 C672.36,462.00 672.13,461.60 672.44,461.10 C672.52,460.97 672.57,460.84 672.59,460.72 C673.64,461.54 673.92,462.73 673.98,464.49 ZM 497.85 474.65 C497.45,474.24 497.12,474.00 496.92,474.00 C496.41,474.00 496.00,473.43 496.00,472.72 C496.00,472.43 495.77,471.92 495.39,471.29 C496.32,472.56 497.15,473.68 497.85,474.65 ZM 902.58 462.81 C902.31,463.64 902.04,464.47 901.76,465.30 C901.79,465.07 901.75,464.79 901.64,464.50 C901.32,463.67 901.55,463.00 902.14,463.00 C902.33,463.00 902.48,462.93 902.58,462.81 ZM 493.57 468.80 C493.38,468.59 493.19,468.37 493.00,468.16 C491.35,466.35 490.00,464.55 490.00,464.16 C490.00,464.08 489.94,463.93 489.83,463.74 C491.17,465.55 492.42,467.25 493.57,468.80 ZM 771.43 476.27 C771.65,476.82 771.91,477.39 772.19,478.00 C773.78,481.41 776.08,484.59 778.87,487.32 C775.32,483.96 772.92,480.47 771.43,476.27 ZM 679.54 428.63 C679.29,429.35 678.91,430.04 678.42,430.68 C678.55,430.25 678.53,429.87 678.32,429.66 C677.96,429.30 678.19,429.00 678.83,429.00 C679.13,429.00 679.36,428.87 679.54,428.63 ZM 604.48 495.86 C604.56,495.77 604.43,495.47 604.15,495.02 C604.19,495.08 604.24,495.14 604.29,495.20 C605.01,496.09 605.59,496.98 606.04,497.83 C605.92,497.70 605.78,497.58 605.64,497.48 C604.76,496.83 604.23,496.10 604.48,495.86 ZM 939.03 506.91 C937.76,507.95 936.40,508.00 934.52,508.00 C931.80,508.00 929.78,507.20 928.04,505.11 C928.17,505.26 928.31,505.40 928.45,505.55 C931.12,508.21 935.67,508.75 939.03,506.91 ZM 839.52 450.10 C839.31,449.55 839.12,449.22 838.96,449.16 C838.43,448.98 838.23,448.43 838.53,447.95 C838.63,447.79 838.62,447.46 838.52,447.01 C838.88,448.03 839.22,449.06 839.52,450.10 ZM 944.78 494.59 C944.27,496.19 943.79,497.60 943.34,498.84 C943.50,497.45 943.82,496.24 944.10,496.00 C944.25,495.88 944.48,495.38 944.78,494.59 ZM 828.75 431.30 C826.58,429.24 823.63,426.93 820.87,425.21 C823.79,426.89 826.42,428.94 828.75,431.30 ZM 465.30 430.74 L 457.85 420.90 L 457.97 420.90 ZM 888.72 501.24 C888.27,502.32 887.86,503.25 887.51,504.01 C887.48,503.99 887.45,503.99 887.40,503.98 C886.91,503.98 887.00,503.64 887.61,503.23 C887.81,503.10 888.20,502.39 888.72,501.24 ZM 716.58 495.00 L 709.00 495.00 L 709.00 494.88 ZM 951.17 424.02 C951.76,422.61 952.24,421.78 952.60,421.50 C952.93,421.25 953.28,421.04 953.64,420.86 C952.74,421.44 951.96,422.41 951.17,424.02 ZM 598.83 508.07 C598.51,508.00 598.18,507.90 597.84,507.79 C597.32,507.61 596.60,507.10 595.65,506.24 C596.76,507.11 597.82,507.73 598.83,508.07 ZM 961.06 421.32 C962.46,422.19 963.52,423.50 963.86,425.08 C963.50,423.65 962.42,422.27 961.06,421.32 ZM 605.56 505.93 C606.49,504.90 607.03,503.45 607.16,502.02 C607.13,503.47 606.60,504.79 605.56,505.93 ZM 679.93 426.12 C679.78,424.83 679.27,423.41 678.43,422.57 C679.37,423.51 679.87,424.78 679.93,426.12 ZM 503.48 478.56 C503.79,474.15 504.00,464.20 504.00,452.50 C504.00,464.67 503.80,474.27 503.48,478.56 ZM 886.34 506.18 C885.36,507.26 883.73,507.86 881.94,507.99 C883.70,507.84 885.33,507.22 886.39,506.12 C886.37,506.14 886.35,506.16 886.34,506.18 ZM 880.96 482.85 C880.96,482.84 880.95,482.83 880.94,482.82 C880.55,482.10 876.79,468.95 872.59,453.59 C876.72,468.69 880.44,481.69 880.96,482.85 ZM 909.05 427.03 C906.82,426.69 904.32,426.99 902.69,427.97 C904.32,426.97 906.82,426.67 909.05,427.03 ZM 816.47 504.68 C816.69,504.57 816.90,504.47 817.12,504.36 C816.56,504.64 815.99,504.92 815.41,505.19 C814.91,505.42 814.42,505.64 813.91,505.85 C814.70,505.51 815.54,505.12 816.47,504.68 ZM 599.40 420.40 C600.18,420.56 600.88,420.88 601.49,421.34 C600.87,420.90 600.16,420.58 599.40,420.40 ZM 875.82 506.65 C875.37,506.38 874.95,506.09 874.57,505.75 C874.35,505.55 874.13,505.30 873.89,504.97 C874.13,505.28 874.36,505.54 874.60,505.75 C874.97,506.09 875.38,506.38 875.82,506.65 ZM 941.65 503.04 C941.56,503.23 941.47,503.41 941.39,503.58 C941.39,503.38 941.48,503.19 941.65,503.04 ZM 545.44 507.80 C544.32,507.59 543.22,507.14 542.22,506.44 C543.18,507.11 544.28,507.57 545.44,507.80 ZM 503.09 481.00 C503.09,481.00 503.08,481.00 503.08,481.00 C502.97,481.00 502.82,480.93 502.64,480.79 C502.82,480.92 502.97,480.99 503.09,481.00 Z" fill="rgb(19,40,66)"/>
<path d="M 0.00 382.50 L 0.00 0.00 L 685.50 0.00 L 1371.00 0.00 L 1371.00 382.50 L 1371.00 765.00 L 685.50 765.00 L 0.00 765.00 L 0.00 382.50 ZM 605.56 505.93 C608.07,503.16 607.62,499.35 604.29,495.20 C602.66,493.16 598.25,487.45 594.49,482.50 C590.72,477.55 584.95,470.00 581.64,465.73 L 575.64 457.95 L 589.89 443.58 C603.11,430.25 604.12,428.96 603.82,425.88 C603.38,421.32 599.57,419.11 595.24,420.90 C593.58,421.59 583.61,431.11 573.11,442.05 L 554.00 461.94 L 554.00 443.40 C554.00,432.54 553.57,424.07 552.96,422.93 C552.18,421.47 550.86,421.00 547.54,421.00 C539.65,421.00 540.00,418.98 540.00,464.51 L 540.00 504.89 L 542.22 506.44 C545.37,508.65 549.57,508.38 551.96,505.81 C553.78,503.86 554.00,502.32 554.00,491.53 L 554.00 479.43 L 559.45 474.05 C565.83,467.75 565.26,467.55 573.69,478.88 C588.36,498.60 595.33,506.94 597.84,507.79 C601.14,508.89 603.37,508.35 605.56,505.93 ZM 815.41 505.19 C823.93,501.20 829.23,496.87 833.56,490.34 C848.58,467.72 841.24,435.02 818.68,424.05 C795.84,412.94 769.36,421.93 758.84,444.38 C755.61,451.26 755.50,451.92 755.50,464.00 C755.50,475.98 755.63,476.78 758.68,483.22 C762.32,490.89 769.42,498.99 775.76,502.71 C788.08,509.92 803.26,510.87 815.41,505.19 ZM 420.00 506.00 C421.93,504.07 422.00,502.67 422.00,464.00 C422.00,425.33 421.93,423.93 420.00,422.00 C418.89,420.89 416.67,420.00 415.00,420.00 C413.33,420.00 411.11,420.89 410.00,422.00 C408.07,423.93 408.00,425.33 408.00,463.96 C408.00,503.78 408.01,503.93 410.19,505.96 C412.97,508.56 417.43,508.57 420.00,506.00 ZM 515.55 505.55 L 518.00 503.09 L 518.00 464.00 L 518.00 424.91 L 515.55 422.45 C512.57,419.48 508.70,419.30 506.00,422.00 C504.09,423.91 504.00,425.33 504.00,452.50 C504.00,468.36 503.61,481.00 503.12,481.00 C502.63,481.00 501.42,479.76 500.43,478.25 C499.44,476.74 489.48,463.21 478.30,448.20 L 457.97 420.90 L 452.76 421.20 C448.36,421.45 447.35,421.89 446.29,424.00 C445.34,425.88 445.03,436.09 445.01,465.18 C445.00,499.02 445.20,504.05 446.57,505.43 C448.19,507.05 451.82,507.42 455.75,506.37 L 458.00 505.77 L 458.00 476.38 C458.00,453.53 458.28,447.00 459.25,447.02 C460.54,447.04 462.82,449.98 481.41,475.50 C497.97,498.25 503.22,505.04 505.43,506.59 C508.52,508.75 512.78,508.31 515.55,505.55 ZM 635.00 506.00 C636.83,504.17 637.00,502.67 637.00,488.00 L 637.00 472.00 L 653.28 472.00 C671.92,472.00 674.00,471.35 674.00,465.51 C674.00,459.38 672.84,459.00 653.90,459.00 L 636.94 459.00 L 637.22 446.25 L 637.50 433.50 L 657.00 433.25 C675.46,433.01 676.59,432.88 678.25,430.89 C680.42,428.27 680.50,424.64 678.43,422.57 C677.08,421.23 673.24,421.00 651.76,421.00 C629.80,421.00 626.43,421.21 624.83,422.65 C623.12,424.21 623.00,426.82 623.00,464.15 C623.00,502.67 623.07,504.07 625.00,506.00 C626.11,507.11 628.33,508.00 630.00,508.00 C631.67,508.00 633.89,507.11 635.00,506.00 ZM 748.78 506.44 C750.29,505.38 751.00,503.87 750.98,501.69 C750.96,495.51 751.01,495.53 729.04,495.19 L 709.00 494.88 L 709.00 459.90 L 709.00 424.91 L 706.55 422.45 C703.73,419.64 700.42,419.32 697.22,421.56 L 695.00 423.11 L 695.00 463.48 L 695.00 503.85 L 697.63 505.93 C700.13,507.89 701.51,508.00 723.41,508.00 C742.74,508.00 746.92,507.74 748.78,506.44 ZM 886.34 506.18 C887.97,504.38 896.62,481.18 903.10,461.24 C904.93,455.60 906.87,451.12 907.40,451.30 C907.94,451.48 908.77,452.95 909.26,454.56 C909.75,456.18 910.53,458.40 911.00,459.50 C911.46,460.60 912.14,462.83 912.50,464.47 C912.85,466.10 913.96,469.25 914.95,471.47 C915.94,473.68 917.32,477.30 918.02,479.50 C918.71,481.70 919.62,484.40 920.05,485.50 C920.47,486.60 922.08,491.25 923.61,495.84 C926.72,505.10 929.32,508.00 934.52,508.00 C941.07,508.00 941.36,507.35 953.09,466.46 C959.08,445.58 963.98,427.49 963.99,426.25 C964.01,421.17 956.94,418.22 952.60,421.50 C950.76,422.90 946.09,438.47 937.92,470.50 C936.24,477.10 934.53,482.84 934.12,483.26 C933.72,483.68 929.24,472.23 924.18,457.82 C919.13,443.41 914.30,430.59 913.47,429.31 C911.54,426.36 904.20,426.01 901.74,428.75 C900.39,430.26 891.24,455.35 884.00,477.39 C882.52,481.91 881.48,483.81 880.98,482.89 C880.57,482.13 876.78,468.90 872.56,453.50 C868.35,438.10 864.24,424.49 863.44,423.27 C862.63,422.04 860.85,420.75 859.47,420.40 C856.09,419.55 851.09,421.76 850.46,424.38 C850.18,425.54 854.92,443.83 860.99,465.00 C870.23,497.19 872.45,503.87 874.57,505.75 C877.77,508.58 883.96,508.81 886.34,506.18 ZM 720.50 379.68 C732.16,378.48 737.21,377.58 744.94,375.34 C759.04,371.26 767.86,365.50 772.75,357.18 C775.15,353.10 775.49,351.48 775.45,344.50 C775.40,337.00 775.17,336.14 771.67,330.76 C769.62,327.60 766.72,324.22 765.22,323.26 C763.73,322.30 761.40,320.52 760.05,319.30 C758.71,318.08 756.23,316.52 754.55,315.85 C752.87,315.17 751.28,314.34 751.00,314.01 C750.72,313.67 742.85,309.83 733.50,305.46 C712.72,295.76 709.74,293.87 706.93,288.58 C704.83,284.61 704.80,284.28 706.39,281.21 C710.65,272.98 736.25,266.00 762.19,266.00 C774.55,266.00 777.07,264.92 775.44,260.35 L 774.42 257.50 L 761.96 257.74 C739.82,258.16 721.86,261.44 711.11,267.03 C700.91,272.33 697.00,277.09 697.00,284.18 C697.00,295.25 702.35,299.83 732.39,314.46 C752.05,324.03 756.53,326.63 760.82,330.92 C766.34,336.44 767.60,339.94 766.76,347.41 C765.48,358.79 751.33,367.13 727.50,370.53 C722.00,371.32 713.45,371.97 708.50,371.97 L 699.50 371.98 L 705.28 368.74 C711.89,365.03 718.26,359.34 720.38,355.23 C721.90,352.30 722.85,340.52 721.67,339.34 C721.30,338.97 721.00,337.91 721.00,336.99 C721.00,336.07 719.88,334.00 718.50,332.41 C717.13,330.81 716.00,329.25 716.00,328.95 C716.00,327.74 701.89,317.90 691.00,311.50 C666.38,297.04 659.07,290.28 659.07,282.00 C659.07,277.02 660.97,274.17 669.98,265.58 C672.14,263.51 672.68,259.54 670.94,258.46 C668.95,257.23 664.88,259.07 660.37,263.23 C654.43,268.71 651.07,274.62 650.32,280.94 C649.78,285.47 649.16,286.57 645.11,290.16 C637.62,296.78 629.19,302.09 620.58,305.61 L 612.50 308.91 L 611.85 317.21 C610.55,333.65 606.89,347.55 599.03,365.94 C596.76,371.24 595.24,376.18 595.56,377.19 C595.88,378.18 597.34,379.26 598.82,379.59 C600.29,379.91 601.95,380.34 602.50,380.54 C603.82,381.03 715.32,380.21 720.50,379.68 ZM 787.62 493.55 C780.92,490.27 775.24,484.54 772.19,478.00 C770.08,473.48 769.62,470.98 769.59,464.00 C769.57,456.73 769.98,454.59 772.43,449.22 C777.52,438.08 785.54,433.06 798.28,433.02 C804.61,433.00 806.98,433.46 810.94,435.47 C816.30,438.19 822.08,444.55 824.55,450.46 C827.08,456.52 827.53,466.66 825.57,473.42 C822.55,483.80 818.07,489.21 809.00,493.42 C801.75,496.79 794.34,496.84 787.62,493.55 ZM 617.00 370.03 C623.53,364.54 648.03,354.68 660.42,352.57 C663.48,352.05 664.96,350.55 664.98,347.96 C665.01,345.27 667.97,334.68 670.09,329.65 C672.90,323.01 677.93,315.00 679.29,315.00 C680.98,315.00 698.81,325.77 704.50,330.24 C718.14,340.93 717.08,353.26 701.89,360.72 C686.93,368.08 670.01,370.99 638.50,371.64 L 614.50 372.13 L 617.00 370.03 ZM 624.60 352.25 C627.27,349.09 631.23,344.40 633.41,341.83 C636.07,338.69 638.42,336.96 640.55,336.56 C646.32,335.47 649.00,330.30 646.44,325.18 C645.57,323.43 644.55,321.95 644.18,321.89 C638.37,320.93 636.91,321.18 634.53,323.56 C632.97,325.12 632.00,327.22 632.00,329.03 C632.00,331.28 629.83,334.55 622.78,342.94 C617.71,348.97 613.41,353.74 613.21,353.55 C613.02,353.35 613.81,350.13 614.96,346.39 C617.41,338.47 620.00,324.38 620.00,319.00 L 620.00 315.26 L 630.25 310.17 C635.89,307.36 641.98,303.71 643.79,302.06 C645.59,300.40 648.59,297.89 650.45,296.47 L 653.82 293.90 L 658.66 299.07 C661.32,301.92 665.42,305.56 667.76,307.18 L 672.02 310.11 L 669.53 313.38 C665.94,318.08 660.39,330.54 658.46,338.23 L 656.79 344.85 L 651.65 346.06 C645.37,347.53 636.73,350.74 627.84,354.89 C624.17,356.60 620.86,358.00 620.47,358.00 C620.08,358.00 621.94,355.41 624.60,352.25 Z" fill="rgb(246,249,249)"/>
</g>
</svg>